<?xml version="1.0" encoding="iso-8859-1"?>
<!-- Generator: Adobe Illustrator 19.0.0, SVG Export Plug-In . SVG Version: 6.00 Build 0)  -->
<svg version="1.1" id="Layer_1" xmlns="http://www.w3.org/2000/svg" xmlns:xlink="http://www.w3.org/1999/xlink" x="0px" y="0px"
	 viewBox="0 0 512.001 512.001" style="enable-background:new 0 0 512.001 512.001;" xml:space="preserve">
<rect x="33.03" y="86.441" style="fill:#93E5F9;" width="445.94" height="339.12"/>
<path style="fill:#6EDCF9;" d="M260.069,86.439H33.031v339.124h284.404C207.752,346.268,184.053,194.875,260.069,86.439z"/>
<path style="fill:#5CCC2E;" d="M482.984,274.883l-88.861-58.982c-2.568-1.706-5.936-1.59-8.381,0.289l-98.564,75.708l-65.979-40.711
	c-2.402-1.483-5.447-1.427-7.793,0.141L28.997,374.556c-2.003,1.338-3.205,3.588-3.205,5.996v43.497
	c0,3.983,3.228,7.212,7.212,7.212h445.992c3.984,0,7.212-3.229,7.212-7.212V280.891
	C486.208,278.474,484.998,276.219,482.984,274.883z"/>
<circle style="fill:#FF9429;" cx="131.08" cy="185.591" r="41.3"/>
<path style="fill:#EF6D14;" d="M110.46,185.594c0-19.24,13.155-35.406,30.962-39.997c-26.215-6.757-51.645,13.073-51.645,39.997
	c0,26.956,25.458,46.749,51.645,39.999C123.614,221.002,110.46,204.835,110.46,185.594z"/>
<path style="fill:#48A01A;" d="M218.095,250.156c-3.77-0.358,8.726-7.793-189.098,124.4c-2.003,1.338-3.205,3.588-3.205,5.996
	v43.497c0,3.983,3.228,7.212,7.212,7.212h300.344C267.095,397.06,221.11,329.116,218.095,250.156z"/>
<path style="fill:#CC7954;" d="M477.105,53.409c-15.977,0-422.254,0-442.211,0C15.653,53.409,0,69.062,0,88.302v335.397
	c0,19.241,15.653,34.894,34.895,34.894h442.211c19.241,0,34.895-15.653,34.895-34.894V88.302
	C512,69.062,496.346,53.409,477.105,53.409z M476.393,422.987H35.607V89.015h440.786V422.987z"/>
<g>
	<path style="fill:#B25F42;" d="M19.232,423.7V88.302c0-19.241,15.653-34.894,34.895-34.894H34.895C15.653,53.409,0,69.062,0,88.302
		v335.397c0,19.241,15.653,34.894,34.895,34.894h19.232C34.884,458.593,19.232,442.94,19.232,423.7z"/>
	<path style="fill:#B25F42;" d="M483.262,89.015h-6.869v333.973h6.869c6.827,0,12.363-5.535,12.363-12.363V101.378
		C495.625,94.55,490.089,89.015,483.262,89.015z"/>
</g>
<g>
</g>
<g>
</g>
<g>
</g>
<g>
</g>
<g>
</g>
<g>
</g>
<g>
</g>
<g>
</g>
<g>
</g>
<g>
</g>
<g>
</g>
<g>
</g>
<g>
</g>
<g>
</g>
<g>
</g>
</svg>
